# xmcd
#
# Track frame offsets:
#	150
#	15285
#	31175
#	42657
#	54651
#	75258
#	97910
#	115160
#	128941
#	146841
#	176501
#	190205
#	202934
#	218172
#	243601
#	260075
#
# Disc length: 3707 seconds
#
# Revision: 0
# Processed by: cddbd v1.5.1PL2 Copyright (c) Steve Scherf et al.
# Submitted via: audiograbber 1.82.01
#
DISCID=db0e7910
DTITLE=Various Artist - Lady Sings the blues Disc 1
DYEAR=2003
DGENRE=Blues
TTITLE0=Peggy Lee - Fever
TTITLE1=Dusty Springfield - The Look Of Love
TTITLE2=Ella Fitzgerald - Summertime
TTITLE3=Brenda Lee - I'm Sorry
TTITLE4=Gladys Knight and the Pips - Midnight Train To Georgia
TTITLE5=Luba - When A man loves a woman
TTITLE6=Carole King - (you make me feel) a natural woman
TTITLE7=Irma Thomas - I've Been loving you too long
TTITLE8=Milly Jackson - (if loving you is wrong) I don't wnat to be right
TTITLE9=Ruby Turner - I'd Rather go blind
TTITLE10=Nina Simone - Gin House Blues
TTITLE11=Julie London - Cry Me a river
TTITLE12=Nancy Wilson - Can't take my eyes off you
TTITLE13=Cassandra Wilson and Tupelo Honey - Angel
TTITLE14=Nora Jones - Cold cold heart
TTITLE15=Patricia O'Callaghan - Take this waltz
EXTD=
EXTT0=
EXTT1=
EXTT2=
EXTT3=
EXTT4=
EXTT5=
EXTT6=
EXTT7=
EXTT8=
EXTT9=
EXTT10=
EXTT11=
EXTT12=
EXTT13=
EXTT14=
EXTT15=
PLAYORDER=
